<svg width="1800" height="1000" viewBox="0 0 1800 1000" xmlns="http://www.w3.org/2000/svg"><defs><linearGradient id="bg" x1="0" y1="0" x2="1" y2="1"><stop offset="0" stop-color="#f8f4ea"/><stop offset=".45" stop-color="#0b1730"/><stop offset="1" stop-color="#020617"/></linearGradient><filter id="glow"><feGaussianBlur stdDeviation="6" result="b"/><feMerge><feMergeNode in="b"/><feMergeNode in="SourceGraphic"/></feMerge></filter></defs><rect width="1800" height="1000" fill="url(#bg)"/><text x="86" y="145" font-family="Georgia,serif" font-size="58" fill="#0f172a">Elyria</text><text x="86" y="218" font-family="Georgia,serif" font-size="52" fill="#c99b35">Consequence Boundary Infrastructure</text><text x="90" y="274" font-family="Inter,Arial" font-size="18" fill="#93c5fd" letter-spacing="5">CITY-SCALE GOVERNED CONSEQUENCE MESH</text><g opacity=".85" stroke="#38bdf8" stroke-width="2"><path d="M520 650L760 520L940 610L1160 465L1400 585L1660 420"/><path d="M520 760L760 640L940 730L1160 585L1400 705L1660 540"/><path d="M760 520V640M940 610V730M1160 465V585M1400 585V705"/></g><g fill="#07111f" stroke="#38bdf8" stroke-width="2"><rect x="690" y="455" width="150" height="90" rx="10"/><rect x="880" y="550" width="160" height="100" rx="10"/><rect x="1090" y="400" width="170" height="110" rx="10"/><rect x="1320" y="520" width="170" height="110" rx="10"/></g><g font-family="Inter,Arial" font-size="16" fill="#e2e8f0" text-anchor="middle"><text x="765" y="505">BANKING</text><text x="960" y="604">PUBLIC</text><text x="1175" y="462">CLOUD</text><text x="1405" y="582">CRITICAL</text></g><path d="M450 330 C760 260 1020 300 1280 245 C1470 205 1600 210 1720 250" stroke="#d8b76a" stroke-width="10" fill="none" filter="url(#glow)"/><path d="M450 825 C770 770 1010 830 1290 755 C1490 700 1600 700 1720 735" stroke="#d8b76a" stroke-width="10" fill="none" filter="url(#glow)"/><text x="1110" y="880" text-anchor="middle" font-family="Georgia,serif" font-size="28" fill="#fff3c4">A boundary mesh for consequence-bearing infrastructure.</text></svg>